<?xml version="1.0" encoding="UTF-8" standalone="no"?>
  <!-- Created with Inkscape (http://www.inkscape.org/) -->
  
  <svg
     xmlns:dc="http://purl.org/dc/elements/1.1/"
     xmlns:cc="http://creativecommons.org/ns#"
     xmlns:rdf="http://www.w3.org/1999/02/22-rdf-syntax-ns#"
     xmlns:svg="http://www.w3.org/2000/svg"
     xmlns="http://www.w3.org/2000/svg"
     xmlns:sodipodi="http://sodipodi.sourceforge.net/DTD/sodipodi-0.dtd"
     xmlns:inkscape="http://www.inkscape.org/namespaces/inkscape"
     version="1.1"
     id="svg5283"
     xml:space="preserve"
     width="755.90533"
     height="302.36267"
     viewBox="0 0 755.90533 302.36267"
     sodipodi:docname="kolibri-logo.svg"
     inkscape:version="0.92.3 (d244b95, 2018-08-02)"><metadata
       id="metadata5289"><rdf:RDF><cc:Work
           rdf:about=""><dc:format>image/svg+xml</dc:format><dc:type
             rdf:resource="http://purl.org/dc/dcmitype/StillImage" /><dc:title></dc:title></cc:Work></rdf:RDF></metadata><defs
       id="defs5287"><clipPath
         clipPathUnits="userSpaceOnUse"
         id="clipPath5299"><path
           d="M 0,226.772 H 566.929 V 0 H 0 Z"
           id="path5297"
           inkscape:connector-curvature="0" /></clipPath></defs><sodipodi:namedview
       pagecolor="#ffffff"
       bordercolor="#666666"
       borderopacity="1"
       objecttolerance="10"
       gridtolerance="10"
       guidetolerance="10"
       inkscape:pageopacity="0"
       inkscape:pageshadow="2"
       inkscape:window-width="1833"
       inkscape:window-height="1073"
       id="namedview5285"
       showgrid="false"
       inkscape:zoom="0.51329179"
       inkscape:cx="377.95267"
       inkscape:cy="151.18134"
       inkscape:window-x="39"
       inkscape:window-y="27"
       inkscape:window-maximized="1"
       inkscape:current-layer="g5291" /><g
       id="g5291"
       inkscape:groupmode="layer"
       inkscape:label="camara_logo_left_CS6"
       transform="matrix(1.3333333,0,0,-1.3333333,0,302.36267)"><g
         id="g5293"><g
           id="g5295"
           clip-path="url(#clipPath5299)"><g
             id="g5301"
             transform="translate(147.2371,88.8082)"><path
               d="m 0,0 c -1.697,-1.837 -4.703,0.4 -4.703,0.4 0,0 -16.149,8.908 -18.359,10.602 -2.225,1.716 -6.047,3.412 -8.508,2.378 -2.514,-1.054 -0.555,-3.933 -0.555,-3.933 0,0 15.104,-21.655 15.865,-22.297 0.793,-0.663 0.399,-1.705 0.266,-2.598 -0.127,-0.933 -11.392,-7.363 -13.229,-7.363 -1.836,0 -3.546,0.272 -3.546,0.272 0,0 -5.5,22.667 -5.5,23.722 0,1.042 -0.783,6.55 -2.897,8.384 -2.084,1.846 -3.402,-0.12 -4.709,-0.67 -1.318,-0.502 -3.277,-2.478 -3.277,-2.478 0,0 -11.4,-28.045 -12.194,-28.447 -0.775,-0.381 -3.533,0.141 -3.533,0.141 0,0 -10.748,8.255 -11.533,9.298 -0.787,1.054 1.189,4.204 1.189,4.204 l 17.55,17.171 c 0,0 2.38,2.096 3.025,3.54 0.656,1.445 -1.698,4.063 -2.889,4.444 -1.18,0.402 -3.66,-0.131 -3.66,-0.131 0,0 -25.555,-9.187 -27.401,-9.187 -1.845,0 -1.195,0.541 -1.97,1.715 -0.785,1.183 -1.961,10.221 -1.961,10.221 0,0 0.127,4.994 0.381,6.17 0.277,1.183 3.029,1.834 3.029,1.834 0,0 26.596,-3.01 28.969,-3.01 2.352,0 1.949,1.176 2.882,2.738 0.922,1.575 -1.709,2.498 -1.709,2.498 L -83.488,43.38 c 0,0 -2.096,1.444 -2.883,2.226 -0.785,0.786 -0.785,2.097 -0.785,2.097 -0.529,6.029 9.035,12.439 11.529,12.959 2.491,0.534 4.336,-2.868 4.336,-2.868 0,0 17.807,-24.905 19.647,-25.548 1.839,-0.672 4.205,2.348 4.328,3.531 0.123,1.174 -4.453,17.423 -4.453,17.423 0,0 -2.102,2.487 -2.617,7.604 -0.52,5.104 1.822,6.288 4.326,7.071 2.472,0.792 12.171,-0.115 13.23,-0.652 1.043,-0.521 1.709,-2.367 1.709,-2.367 0,0 -4.067,-23.973 -4.201,-26.732 -0.142,-2.748 1.576,-4.702 4.047,-4.575 2.506,0.123 3.568,1.827 3.568,1.827 0,0 19.391,19.4 19.777,20.573 0.391,1.203 1.571,0.782 3.544,0.131 C -6.422,55.437 0,44.944 0.26,43.38 0.522,41.807 -1.457,41.274 -2.098,41.013 -2.773,40.744 -19.006,31.184 -27.01,26.208 c -8.001,-4.983 0.542,-7.343 0.542,-7.343 0,0 25.816,-0.771 28.687,-1.033 2.877,-0.27 1.983,-1.443 2.346,-2.887 C 4.975,13.491 1.682,1.813 0,0 m 18.176,-1.284 c 0,0 -1.39,3.601 -1.39,4.985 0,1.395 0.571,5.006 0.571,5.006 0,0 -0.571,29.177 -0.839,31.684 -0.289,2.487 0.533,3.029 1.373,4.997 0.853,1.943 0.285,4.44 0.285,6.389 0,1.936 -0.285,14.437 -0.819,18.329 -0.571,3.892 -5.55,8.631 -6.683,8.893 -1.105,0.28 -8.871,4.723 -8.871,4.723 0,0 -34.744,-0.551 -35.571,-0.551 -0.825,0 -6.677,2.218 -8.611,2.218 -1.943,0 -6.396,0 -8.629,-0.272 -2.217,-0.271 -6.373,-1.114 -8.051,-1.114 -1.666,0 -19.181,0.843 -24.459,1.114 -5.265,0.272 -9.714,0 -12.779,-3.069 -3.037,-3.049 -7.766,-8.335 -8.605,-9.44 -0.842,-1.112 -1.393,-10.29 -1.393,-10.29 0,0 1.945,-9.438 1.945,-10.822 0,-1.386 1.383,-17.775 1.383,-18.607 0,-0.843 -1.383,-15.587 -1.383,-16.41 0,-0.813 1.108,-2.78 1.666,-6.119 0.555,-3.319 -1.11,-8.043 -1.11,-8.043 0,0 0.827,-4.463 0.827,-6.932 0,-2.527 -1.383,-4.182 -2.217,-6.971 -0.827,-2.778 -0.279,-4.161 -0.279,-5.267 0,-1.122 4.176,-9.197 7.787,-11.112 3.617,-1.947 6.113,-6.67 7.776,-7.514 1.675,-0.822 4.16,0 6.673,-0.269 2.499,-0.283 6.936,0 8.321,0 1.391,0 6.135,0.83 12.233,1.113 6.113,0.271 3.89,0 4.734,-0.563 0.822,-0.55 4.433,-0.55 6.109,-0.55 1.674,0 3.34,0 4.715,-0.283 1.394,-0.27 5.285,-0.27 7.787,0 2.493,0.283 6.66,1.396 6.66,1.396 h 32.522 c 1.949,0 11.953,4.171 12.798,5.826 0.813,1.675 3.042,3.622 3.866,5.288 0.839,1.654 1.373,10.279 1.111,11.101 -0.272,0.834 0,4.174 0,4.996 0,0.853 0.547,6.14 0.547,6.14 m -62.61,30.572 c -4.239,0 -7.646,-3.432 -7.646,-7.653 0,-4.252 3.407,-7.664 7.646,-7.664 4.235,0 7.665,3.412 7.665,7.664 0,4.221 -3.43,7.653 -7.665,7.653"
               style="fill:#81bd41;fill-opacity:1;fill-rule:nonzero;stroke:none"
               id="path5303"
               inkscape:connector-curvature="0" /></g><g
             id="g5305"
             transform="translate(262.0242,75.6031)"><path
               d="m 0,0 v 1.303 c -0.326,8.555 -5.984,15.4 -14.214,15.4 -8.393,0 -14.083,-7.17 -14.083,-16.052 0,-8.799 5.69,-15.89 14.083,-15.89 8.23,0 13.888,6.764 14.214,15.239 m 0,-11.49 c -3.505,-4.726 -7.94,-7.74 -14.214,-7.74 -10.756,0 -18.075,8.961 -18.075,19.881 0,11.081 7.319,20.044 18.075,20.044 6.274,0 10.709,-3.096 14.214,-7.821 v 20.548 c 0,1.059 0.896,1.954 2.037,1.954 1.06,0 1.956,-0.895 1.956,-1.954 V 1.466 0.651 -17.275 c 0,-1.059 -0.896,-1.955 -1.956,-1.955 -1.141,0 -2.037,0.896 -2.037,1.955 z"
               style="fill:#000000;fill-opacity:1;fill-rule:nonzero;stroke:none"
               id="path5307"
               inkscape:connector-curvature="0" /></g><g
             id="g5309"
             transform="translate(276.3015,94.3834)"><path
               d="M 0,0 C 0,1.142 0.898,1.956 1.956,1.956 3.015,1.956 3.912,1.142 3.912,0 v -21.756 c 0,-6.845 5.46,-12.305 12.222,-12.386 6.846,0.081 12.386,5.541 12.386,12.386 V 0 c 0,1.142 0.979,1.956 1.955,1.956 1.142,0 2.038,-0.814 2.038,-1.956 v -21.756 c 0,-8.963 -7.253,-16.297 -16.379,-16.297 C 7.171,-38.053 0,-30.719 0,-21.756 Z"
               style="fill:#000000;fill-opacity:1;fill-rule:nonzero;stroke:none"
               id="path5311"
               inkscape:connector-curvature="0" /></g><g
             id="g5313"
             transform="translate(318.552,76.4166)"><path
               d="m 0,0 c 0,11.082 9.127,19.882 20.533,19.882 4.728,0 9.208,-1.63 12.712,-4.4 0.816,-0.57 0.98,-1.793 0.245,-2.689 -0.652,-0.732 -1.793,-0.978 -2.689,-0.326 -2.851,2.282 -6.438,3.586 -10.268,3.586 C 11.245,16.053 3.911,8.801 3.911,0 c 0,-8.962 7.334,-16.135 16.622,-16.135 3.83,0 7.417,1.306 10.268,3.504 0.896,0.653 2.037,0.408 2.689,-0.324 0.735,-0.897 0.571,-2.118 -0.406,-2.853 -3.343,-2.608 -7.823,-4.236 -12.551,-4.236 C 9.127,-20.044 0,-11.244 0,0"
               style="fill:#000000;fill-opacity:1;fill-rule:nonzero;stroke:none"
               id="path5315"
               inkscape:connector-curvature="0" /></g><g
             id="g5317"
             transform="translate(393.8479,76.3356)"><path
               d="m 0,0 c 0,8.963 -6.761,16.134 -14.992,16.134 -8.148,0 -14.991,-7.171 -14.991,-16.134 0,-8.963 6.843,-16.054 14.991,-16.054 C -6.761,-16.054 0,-8.963 0,0 m 3.912,18.008 v -36.016 c 0,-1.058 -0.896,-1.955 -1.955,-1.955 -1.06,0 -1.957,0.897 -1.957,1.955 v 5.948 c -3.422,-4.726 -8.881,-7.903 -14.992,-7.903 -10.511,0 -18.904,9.044 -18.904,19.963 0,10.919 8.393,19.963 18.904,19.963 6.111,0 11.57,-3.097 14.992,-7.821 v 5.866 c 0,1.14 0.897,1.955 1.957,1.955 1.059,0 1.955,-0.815 1.955,-1.955"
               style="fill:#000000;fill-opacity:1;fill-rule:nonzero;stroke:none"
               id="path5319"
               inkscape:connector-curvature="0" /></g><g
             id="g5321"
             transform="translate(423.2952,94.3434)"><path
               d="m 0,0 c 0,-0.977 -0.977,-1.956 -1.955,-1.956 h -5.133 v -29.09 c 0,-1.954 1.955,-2.933 2.934,-2.933 0.977,0 2.036,-1.059 2.036,-2.037 0,-0.977 -1.059,-1.955 -2.036,-1.955 -3.993,0 -7.01,2.933 -7.01,6.925 v 29.09 h -4.969 c -1.956,0 -1.956,0.979 -1.956,1.956 0,0.979 0,1.955 1.956,1.955 h 4.969 v 12.688 c 0,0.977 0.98,1.955 1.957,1.955 1.06,0 2.119,-0.978 2.119,-1.955 V 1.955 h 5.133 C -0.977,1.955 0,0.979 0,0"
               style="fill:#000000;fill-opacity:1;fill-rule:nonzero;stroke:none"
               id="path5323"
               inkscape:connector-curvature="0" /></g><g
             id="g5325"
             transform="translate(432.9807,94.3434)"><path
               d="M 0,0 C 0,1.141 0.896,1.955 1.955,1.955 3.096,1.955 3.993,1.141 3.993,0 v -36.016 c 0,-1.058 -0.897,-1.955 -2.038,-1.955 -1.059,0 -1.955,0.897 -1.955,1.955 z m 0,13.038 c 0,1.059 0.896,1.955 1.955,1.955 1.141,0 2.038,-0.896 2.038,-1.955 V 11.162 C 3.993,10.022 3.096,9.045 1.955,9.045 0.896,9.045 0,10.022 0,11.162 Z"
               style="fill:#000000;fill-opacity:1;fill-rule:nonzero;stroke:none"
               id="path5327"
               inkscape:connector-curvature="0" /></g><g
             id="g5329"
             transform="translate(466.2415,60.2818)"><path
               d="m 0,0 c 8.147,0 14.993,7.173 14.993,16.054 0,8.882 -6.846,16.134 -14.993,16.134 -8.147,0 -14.992,-7.252 -14.992,-16.134 C -14.992,7.173 -8.147,0 0,0 m 0,36.017 c 10.512,0 18.904,-9.126 18.904,-19.963 C 18.904,5.217 10.512,-3.909 0,-3.909 c -10.43,0 -18.904,9.126 -18.904,19.963 0,10.837 8.474,19.963 18.904,19.963"
               style="fill:#000000;fill-opacity:1;fill-rule:nonzero;stroke:none"
               id="path5331"
               inkscape:connector-curvature="0" /></g><g
             id="g5333"
             transform="translate(522.0764,80.0006)"><path
               d="M 0,0 C 0,6.765 -5.459,12.306 -12.304,12.306 -19.065,12.306 -24.525,6.765 -24.689,0 V -21.673 -22 c -0.082,-0.324 -0.162,-0.65 -0.408,-0.896 -0.326,-0.488 -0.896,-0.732 -1.466,-0.732 h -0.491 c -0.569,0.162 -1.057,0.569 -1.301,1.06 -0.082,0.08 -0.082,0.161 -0.082,0.244 0,0.081 -0.083,0.163 -0.083,0.163 V -21.673 0 0.654 14.262 c 0,1.06 0.816,1.954 1.957,1.954 1.058,0 1.874,-0.894 1.874,-1.954 v -3.831 c 2.934,3.505 7.415,5.785 12.385,5.785 C -3.341,16.216 3.911,8.883 3.911,0 v -21.673 c 0,-1.14 -0.895,-1.955 -1.956,-1.955 -1.059,0 -1.955,0.815 -1.955,1.955 z"
               style="fill:#000000;fill-opacity:1;fill-rule:nonzero;stroke:none"
               id="path5335"
               inkscape:connector-curvature="0" /></g><g
             id="g5337"
             transform="translate(188.9119,79.5709)"><path
               d="M 0,0 C 1.456,7.507 7.669,12.829 15.098,12.829 22.36,12.829 28.653,7.423 29.946,0 Z m 15.098,16.705 c -10.656,0 -19.215,-8.877 -19.215,-19.857 0,-6.852 3.443,-12.917 8.672,-16.452 0.319,1.534 2.651,1.692 1.932,3.363 -3.855,2.697 -6.482,7.177 -6.731,12.446 h 32.45 c 1.047,0 1.937,0.728 1.937,1.776 v 0.245 0.077 C 33.331,8.635 25.264,16.705 15.098,16.705"
               style="fill:#000000;fill-opacity:1;fill-rule:nonzero;stroke:none"
               id="path5339"
               inkscape:connector-curvature="0" /></g><g
             id="g5341"
             transform="translate(215.2439,63.7818)"><path
               d="m 0,0 c -2.815,-2.177 -6.361,-3.463 -10.148,-3.463 -3.689,0 -7.063,1.142 -9.78,3.081 l -1.53,-2.106 c 0.557,0.554 1.559,0.44 1.559,1.831 0,-1.391 -1.002,-1.277 -1.559,-1.831 L -21.66,-2.77 c -0.098,-0.189 -0.158,-0.435 -0.158,-0.766 0,0.331 0.06,0.577 0.158,0.766 l -0.552,-0.759 c 3.366,-2.4 7.53,-3.803 12.064,-3.803 4.667,0 9.104,1.61 12.403,4.188 0.969,0.727 1.132,1.933 0.403,2.82 C 2.012,0.4 0.886,0.647 0,0"
               style="fill:#000000;fill-opacity:1;fill-rule:nonzero;stroke:none"
               id="path5343"
               inkscape:connector-curvature="0" /></g><g
             id="g5345"
             transform="translate(184.7947,144.9952)"><path
               d="m 0,0 c 0,13.899 11.448,24.935 25.759,24.935 5.924,0 11.551,-2.038 15.945,-5.517 1.021,-0.719 1.228,-2.249 0.306,-3.373 -0.823,-0.921 -2.251,-1.226 -3.373,-0.412 -3.576,2.864 -8.071,4.501 -12.878,4.501 C 14.107,20.134 4.907,11.036 4.907,0 c 0,-11.244 9.2,-20.233 20.852,-20.233 4.807,0 9.302,1.63 12.878,4.392 1.122,0.821 2.55,0.508 3.373,-0.413 0.922,-1.122 0.715,-2.654 -0.514,-3.575 -4.186,-3.269 -9.813,-5.314 -15.737,-5.314 C 11.448,-25.143 0,-14.107 0,0"
               style="fill:#000000;fill-opacity:1;fill-rule:nonzero;stroke:none"
               id="path5347"
               inkscape:connector-curvature="0" /></g><g
             id="g5349"
             transform="translate(280.0735,144.3673)"><path
               d="m 0,0 c 0,11.003 -8.304,19.81 -18.408,19.81 -10.003,0 -18.408,-8.807 -18.408,-19.81 0,-11.01 8.405,-19.712 18.408,-19.712 C -8.304,-19.712 0,-11.01 0,0 m 4.801,22.109 v -44.218 c 0,-1.302 -1.099,-2.406 -2.401,-2.406 -1.298,0 -2.4,1.104 -2.4,2.406 v 7.296 c -4.205,-5.799 -10.905,-9.702 -18.408,-9.702 -12.905,0 -23.212,11.107 -23.212,24.515 0,13.407 10.307,24.507 23.212,24.507 7.503,0 14.203,-3.803 18.408,-9.604 v 7.206 c 0,1.398 1.102,2.398 2.4,2.398 1.302,0 2.401,-1 2.401,-2.398"
               style="fill:#000000;fill-opacity:1;fill-rule:nonzero;stroke:none"
               id="path5351"
               inkscape:connector-curvature="0" /></g><g
             id="g5353"
             transform="translate(371.2209,148.8673)"><path
               d="M 0,0 C -0.196,8.307 -6.802,15.205 -15.203,15.205 -23.508,15.205 -30.31,8.307 -30.31,0 v -26.715 -0.301 c 0,-0.096 -0.104,-0.195 -0.104,-0.195 v -0.201 c -0.196,-0.602 -0.698,-1.002 -1.195,-1.302 -0.406,-0.202 -0.804,-0.301 -1.202,-0.301 h -0.3 -0.203 c -0.098,0 -0.197,0.099 -0.197,0.099 -0.202,0 -0.402,0.202 -0.601,0.3 -0.102,0 -0.202,0.106 -0.301,0.202 l -0.301,0.301 c -0.097,0.099 -0.097,0.202 -0.201,0.202 0,0.099 0,0.099 -0.1,0.198 0,0 0,0.104 -0.096,0.202 0,0.099 0,0.195 -0.106,0.3 v 0.301 0.195 V 0 c 0,8.307 -6.699,15.205 -15.103,15.205 -8.404,0 -15.108,-6.898 -15.108,-15.205 v -26.715 c 0,-0.796 -0.398,-1.495 -1.1,-1.901 -0.102,-0.098 -0.403,-0.3 -0.597,-0.3 -0.106,-0.099 -0.204,-0.099 -0.402,-0.099 h -0.3 -0.302 c -0.897,0.099 -1.702,0.902 -2.002,1.804 V -26.715 0 0.799 17.609 c 0,1.301 1.105,2.299 2.304,2.299 1.399,0 2.399,-0.998 2.399,-2.299 v -4.704 c 3.601,4.307 9.004,7.003 15.108,7.003 7.603,0 14.104,-4.2 17.509,-10.408 3.501,6.208 10.104,10.408 17.608,10.408 C -4.201,19.908 4.703,11.003 4.703,0 v -26.715 c 0,-1.196 -0.998,-2.3 -2.401,-2.3 -1.298,0 -2.302,1.104 -2.302,2.3 z"
               style="fill:#000000;fill-opacity:1;fill-rule:nonzero;stroke:none"
               id="path5355"
               inkscape:connector-curvature="0" /></g><g
             id="g5357"
             transform="translate(428.2659,144.3673)"><path
               d="m 0,0 c 0,11.003 -8.304,19.81 -18.405,19.81 -10.01,0 -18.411,-8.807 -18.411,-19.81 0,-11.01 8.401,-19.712 18.411,-19.712 C -8.304,-19.712 0,-11.01 0,0 m 4.802,22.109 v -44.218 c 0,-1.302 -1.098,-2.406 -2.398,-2.406 -1.3,0 -2.404,1.104 -2.404,2.406 v 7.296 c -4.201,-5.799 -10.906,-9.702 -18.405,-9.702 -12.91,0 -23.213,11.107 -23.213,24.515 0,13.407 10.303,24.507 23.213,24.507 7.499,0 14.204,-3.803 18.405,-9.604 v 7.206 c 0,1.398 1.104,2.398 2.404,2.398 1.3,0 2.398,-1 2.398,-2.398"
               style="fill:#000000;fill-opacity:1;fill-rule:nonzero;stroke:none"
               id="path5359"
               inkscape:connector-curvature="0" /></g><g
             id="g5361"
             transform="translate(449.2483,166.3717)"><path
               d="m 0,0 c 0,1.406 1.105,2.404 2.502,2.404 1.204,0 2.3,-0.998 2.3,-2.404 v -10.8 c 0.202,0.4 0.408,0.797 0.699,1.196 3.706,5.81 10.207,12.008 19.614,12.008 1.301,0 2.4,-0.998 2.4,-2.404 0,-1.3 -1.099,-2.397 -2.4,-2.397 -6.401,0 -10.806,-3.6 -14.21,-8.003 -3.299,-4.405 -5.2,-9.402 -5.901,-11.41 -0.202,-0.397 -0.202,-0.6 -0.202,-0.796 v -21.508 c 0,-1.404 -1.096,-2.406 -2.3,-2.406 -1.397,0 -2.502,1.002 -2.502,2.406 z"
               style="fill:#000000;fill-opacity:1;fill-rule:nonzero;stroke:none"
               id="path5363"
               inkscape:connector-curvature="0" /></g><g
             id="g5365"
             transform="translate(520.8391,144.3673)"><path
               d="m 0,0 c 0,11.003 -8.304,19.81 -18.411,19.81 -10.003,0 -18.405,-8.807 -18.405,-19.81 0,-11.01 8.402,-19.712 18.405,-19.712 C -8.304,-19.712 0,-11.01 0,0 m 4.804,22.109 v -44.218 c 0,-1.302 -1.105,-2.406 -2.407,-2.406 -1.298,0 -2.397,1.104 -2.397,2.406 v 7.296 c -4.2,-5.799 -10.904,-9.702 -18.411,-9.702 -12.903,0 -23.206,11.107 -23.206,24.515 0,13.407 10.303,24.507 23.206,24.507 7.507,0 14.211,-3.803 18.411,-9.604 v 7.206 c 0,1.398 1.099,2.398 2.397,2.398 1.302,0 2.407,-1 2.407,-2.398"
               style="fill:#000000;fill-opacity:1;fill-rule:nonzero;stroke:none"
               id="path5367"
               inkscape:connector-curvature="0" /></g></g></g></g></svg>